<svg width="20" height="20" viewBox="0 0 20 20" fill="none" xmlns="http://www.w3.org/2000/svg">
<path fill-rule="evenodd" clip-rule="evenodd" d="M-4.6012e-07 2.63158C-2.06003e-07 1.1782 1.20424 2.10556e-07 2.68975 4.7029e-07L13 2.27299e-06L13 1.05263L2.68975 1.05263C1.79844 1.05263 1.0759 1.75955 1.0759 2.63158L1.0759 17.3684C1.0759 18.2405 1.79844 18.9474 2.68974 18.9474L13 18.9474L13 20L2.68974 20C1.20424 20 -3.29091e-06 18.8218 -3.03679e-06 17.3684L-4.6012e-07 2.63158Z" fill="#A180FF"/>
<path fill-rule="evenodd" clip-rule="evenodd" d="M13.3814 3.9445C13.5915 3.73896 13.9321 3.73896 14.1422 3.9445L20.0002 9.67578L14.1422 15.4071C13.9321 15.6126 13.5915 15.6126 13.3814 15.4071C13.1713 15.2015 13.1713 14.8683 13.3814 14.6627L18.4786 9.67578L13.3814 4.68882C13.1713 4.48328 13.1713 4.15003 13.3814 3.9445Z" fill="#A180FF"/>
<path fill-rule="evenodd" clip-rule="evenodd" d="M18.9352 10.2519L5.37891 10.2519L5.37891 9.19922L18.9352 9.19922L18.9352 10.2519Z" fill="#A180FF"/>
</svg>
