<svg width="30" height="31" viewBox="0 0 30 31" fill="none" xmlns="http://www.w3.org/2000/svg">
<circle cx="15" cy="15.5645" r="15" fill="#4200FF"/>
<path d="M21.6351 8.54086C21.6073 8.54086 21.5799 8.53539 21.5543 8.52478C21.5286 8.51417 21.5054 8.49862 21.4858 8.47901C21.4661 8.4594 21.4506 8.43612 21.44 8.4105C21.4294 8.38488 21.4239 8.35743 21.4239 8.3297V7.77561C21.4239 7.71961 21.4461 7.6659 21.4858 7.6263C21.5254 7.5867 21.5791 7.56445 21.6351 7.56445C21.6911 7.56445 21.7448 7.5867 21.7844 7.6263C21.824 7.6659 21.8462 7.71961 21.8462 7.77561V8.3297C21.8462 8.35743 21.8408 8.38488 21.8301 8.4105C21.8195 8.43612 21.804 8.4594 21.7844 8.47901C21.7648 8.49862 21.7415 8.51417 21.7159 8.52478C21.6903 8.53539 21.6628 8.54086 21.6351 8.54086ZM21.6351 10.2952C21.5791 10.2952 21.5254 10.2729 21.4858 10.2333C21.4461 10.1937 21.4239 10.14 21.4239 10.084V9.52824C21.4239 9.47224 21.4461 9.41853 21.4858 9.37893C21.5254 9.33933 21.5791 9.31708 21.6351 9.31708C21.6911 9.31708 21.7448 9.33933 21.7844 9.37893C21.824 9.41853 21.8462 9.47224 21.8462 9.52824V10.0823C21.8464 10.1102 21.8411 10.1378 21.8306 10.1636C21.8201 10.1895 21.8046 10.2129 21.785 10.2327C21.7653 10.2525 21.742 10.2682 21.7163 10.2789C21.6905 10.2897 21.6629 10.2952 21.6351 10.2952ZM22.7888 9.14055H22.2348C22.1788 9.14055 22.125 9.1183 22.0854 9.0787C22.0458 9.0391 22.0236 8.98539 22.0236 8.92939C22.0236 8.87339 22.0458 8.81968 22.0854 8.78008C22.125 8.74048 22.1788 8.71823 22.2348 8.71823H22.7888C22.8448 8.71823 22.8986 8.74048 22.9382 8.78008C22.9778 8.81968 23 8.87339 23 8.92939C23 8.98539 22.9778 9.0391 22.9382 9.0787C22.8986 9.1183 22.8448 9.14055 22.7888 9.14055ZM21.0345 9.14055H20.4804C20.4244 9.14055 20.3707 9.1183 20.3311 9.0787C20.2915 9.0391 20.2693 8.98539 20.2693 8.92939C20.2693 8.87339 20.2915 8.81968 20.3311 8.78008C20.3707 8.74048 20.4244 8.71823 20.4804 8.71823H21.0345C21.0905 8.71823 21.1442 8.74048 21.1838 8.78008C21.2234 8.81968 21.2457 8.87339 21.2457 8.92939C21.2457 8.98539 21.2234 9.0391 21.1838 9.0787C21.1442 9.1183 21.0905 9.14055 21.0345 9.14055ZM12.3136 14.5462C12.2576 14.5462 12.2039 14.524 12.1643 14.4844C12.1247 14.4448 12.1025 14.3911 12.1025 14.3351V13.781C12.1025 13.725 12.1247 13.6713 12.1643 13.6317C12.2039 13.5921 12.2576 13.5698 12.3136 13.5698C12.3696 13.5698 12.4233 13.5921 12.4629 13.6317C12.5025 13.6713 12.5248 13.725 12.5248 13.781V14.3351C12.5246 14.3909 12.5022 14.4444 12.4626 14.4838C12.4231 14.5233 12.3695 14.5454 12.3136 14.5454V14.5462ZM12.3136 16.3006C12.2576 16.3006 12.2039 16.2783 12.1643 16.2387C12.1247 16.1991 12.1025 16.1454 12.1025 16.0894V15.5353C12.1025 15.4793 12.1247 15.4256 12.1643 15.386C12.2039 15.3464 12.2576 15.3242 12.3136 15.3242C12.3696 15.3242 12.4233 15.3464 12.4629 15.386C12.5025 15.4256 12.5248 15.4793 12.5248 15.5353V16.0894C12.5246 16.1453 12.5022 16.1987 12.4626 16.2382C12.4231 16.2776 12.3695 16.2997 12.3136 16.2997V16.3006ZM13.4674 15.1468H12.9133C12.8573 15.1468 12.8036 15.1245 12.764 15.0849C12.7244 15.0453 12.7022 14.9916 12.7022 14.9356C12.7022 14.8796 12.7244 14.8259 12.764 14.7863C12.8036 14.7467 12.8573 14.7245 12.9133 14.7245H13.4674C13.5234 14.7245 13.5771 14.7467 13.6167 14.7863C13.6563 14.8259 13.6786 14.8796 13.6786 14.9356C13.6786 14.9916 13.6563 15.0453 13.6167 15.0849C13.5771 15.1245 13.5234 15.1468 13.4674 15.1468ZM11.7131 15.1468H11.159C11.103 15.1468 11.0493 15.1245 11.0097 15.0849C10.9701 15.0453 10.9478 14.9916 10.9478 14.9356C10.9478 14.8796 10.9701 14.8259 11.0097 14.7863C11.0493 14.7467 11.103 14.7245 11.159 14.7245H11.7131C11.7691 14.7245 11.8228 14.7467 11.8624 14.7863C11.902 14.8259 11.9242 14.8796 11.9242 14.9356C11.9242 14.9916 11.902 15.0453 11.8624 15.0849C11.8228 15.1245 11.7691 15.1468 11.7131 15.1468ZM8.36494 10.2952C8.30893 10.2952 8.25522 10.2729 8.21562 10.2333C8.17602 10.1937 8.15378 10.14 8.15378 10.084V9.52824C8.15378 9.47224 8.17602 9.41853 8.21562 9.37893C8.25522 9.33933 8.30893 9.31708 8.36494 9.31708C8.42094 9.31708 8.47465 9.33933 8.51425 9.37893C8.55385 9.41853 8.5761 9.47224 8.5761 9.52824V10.0823C8.57643 10.1102 8.57121 10.1379 8.56074 10.1638C8.55027 10.1896 8.53476 10.2132 8.5151 10.233C8.49545 10.2528 8.47205 10.2685 8.44627 10.2792C8.42049 10.2898 8.39284 10.2953 8.36494 10.2952ZM8.36494 12.0495C8.30893 12.0495 8.25522 12.0272 8.21562 11.9876C8.17602 11.948 8.15378 11.8943 8.15378 11.8383V11.2842C8.15378 11.2282 8.17602 11.1745 8.21562 11.1349C8.25522 11.0953 8.30893 11.0731 8.36494 11.0731C8.42094 11.0731 8.47465 11.0953 8.51425 11.1349C8.55385 11.1745 8.5761 11.2282 8.5761 11.2842V11.8383C8.57621 11.8661 8.57082 11.8936 8.56025 11.9193C8.54968 11.9449 8.53413 11.9683 8.5145 11.9879C8.49487 12.0075 8.47155 12.0231 8.44588 12.0336C8.42021 12.0442 8.3927 12.0496 8.36494 12.0495ZM9.51956 10.8949H8.96548C8.90947 10.8949 8.85576 10.8726 8.81616 10.833C8.77656 10.7934 8.75432 10.7397 8.75432 10.6837C8.75432 10.6277 8.77656 10.574 8.81616 10.5344C8.85576 10.4948 8.90947 10.4725 8.96548 10.4725H9.51956C9.57556 10.4725 9.62927 10.4948 9.66887 10.5344C9.70847 10.574 9.73072 10.6277 9.73072 10.6837C9.73072 10.7397 9.70847 10.7934 9.66887 10.833C9.62927 10.8726 9.57556 10.8949 9.51956 10.8949ZM7.76693 10.8949H7.21116C7.15516 10.8949 7.10145 10.8726 7.06185 10.833C7.02225 10.7934 7 10.7397 7 10.6837C7 10.6277 7.02225 10.574 7.06185 10.5344C7.10145 10.4948 7.15516 10.4725 7.21116 10.4725H7.76693C7.82294 10.4725 7.87664 10.4948 7.91625 10.5344C7.95585 10.574 7.97809 10.6277 7.97809 10.6837C7.97809 10.7397 7.95585 10.7934 7.91625 10.833C7.87664 10.8726 7.82294 10.8949 7.76693 10.8949Z" fill="white"/>
<path fill-rule="evenodd" clip-rule="evenodd" d="M15.3241 9.09245C14.3075 9.09245 13.3138 9.39515 12.4699 9.96198C11.6259 10.5288 10.9698 11.3341 10.5852 12.2752C10.2006 13.2163 10.1049 14.2506 10.3104 15.2463C10.5158 16.2419 11.013 17.1539 11.7387 17.8659C11.9092 18.0332 11.9118 18.307 11.7445 18.4775C11.5772 18.648 11.3034 18.6506 11.1329 18.4833C10.2847 17.651 9.70343 16.5849 9.46329 15.421C9.22315 14.2571 9.335 13.0481 9.78457 11.948C10.2341 10.8479 11.0011 9.90656 11.9876 9.24397C12.9742 8.58138 14.1357 8.22754 15.3241 8.22754C16.5125 8.22754 17.674 8.58138 18.6606 9.24397C19.6472 9.90656 20.4141 10.8479 20.8637 11.948C21.3132 13.0481 21.4251 14.2571 21.1849 15.421C20.9448 16.5849 20.3636 17.651 19.5153 18.4833C19.3448 18.6506 19.071 18.648 18.9037 18.4775C18.7365 18.307 18.7391 18.0332 18.9095 17.8659C19.6352 17.1539 20.1324 16.2419 20.3379 15.2463C20.5433 14.2506 20.4476 13.2163 20.063 12.2752C19.6784 11.3341 19.0223 10.5288 18.1784 9.96198C17.3344 9.39515 16.3408 9.09245 15.3241 9.09245Z" fill="white"/>
<path fill-rule="evenodd" clip-rule="evenodd" d="M8.95687 20.2607C9.19571 20.2607 9.38932 20.4544 9.38932 20.6932V22.4129H21.259V20.6932C21.259 20.4544 21.4527 20.2607 21.6915 20.2607C21.9303 20.2607 22.1239 20.4544 22.1239 20.6932V22.8453C22.1239 23.0842 21.9303 23.2778 21.6915 23.2778H8.95687C8.71803 23.2778 8.52441 23.0842 8.52441 22.8453V20.6932C8.52441 20.4544 8.71803 20.2607 8.95687 20.2607Z" fill="white"/>
<path fill-rule="evenodd" clip-rule="evenodd" d="M14.8916 9.80746C14.8916 9.56862 15.0852 9.375 15.3241 9.375C16.6074 9.375 17.8382 9.88482 18.7457 10.7923C19.6532 11.6998 20.163 12.9306 20.163 14.2139C20.163 14.4528 19.9694 14.6464 19.7305 14.6464C19.4917 14.6464 19.2981 14.4528 19.2981 14.2139C19.2981 13.16 18.8794 12.1492 18.1341 11.4039C17.3888 10.6586 16.378 10.2399 15.3241 10.2399C15.0852 10.2399 14.8916 10.0463 14.8916 9.80746Z" fill="white"/>
<path fill-rule="evenodd" clip-rule="evenodd" d="M19.7404 20.1061H10.9967V20.9102H19.7404V20.1061ZM10.1318 19.2412V21.7751H20.6054V19.2412H10.1318Z" fill="white"/>
</svg>
