<svg width="30" height="31" viewBox="0 0 30 31" fill="none" xmlns="http://www.w3.org/2000/svg">
<circle cx="15" cy="15.5" r="15" fill="#FFECB5"/>
<path fill-rule="evenodd" clip-rule="evenodd" d="M14.3281 11.0303C14.732 10.2698 15.8217 10.2698 16.2256 11.0303L16.5855 11.7081C16.6373 11.8055 16.7311 11.8737 16.8398 11.8928L17.5956 12.0257C18.4437 12.1748 18.7804 13.2112 18.182 13.8303L17.6486 14.3821C17.5719 14.4614 17.5361 14.5717 17.5515 14.681L17.6586 15.4409C17.7789 16.2935 16.8973 16.934 16.1236 16.5562L15.434 16.2194C15.3348 16.171 15.2189 16.171 15.1197 16.2194L14.4301 16.5562C13.6564 16.934 12.7748 16.2935 12.895 15.4409L13.0022 14.681C13.0176 14.5717 12.9818 14.4614 12.9051 14.3821L12.3717 13.8303C11.7733 13.2112 12.11 12.1748 12.9581 12.0257L13.7139 11.8928C13.8226 11.8737 13.9164 11.8055 13.9681 11.7081L14.3281 11.0303ZM15.5931 11.3662C15.4585 11.1127 15.0952 11.1127 14.9606 11.3662L14.6006 12.044C14.4453 12.3364 14.164 12.5408 13.8379 12.5981L13.0821 12.731C12.7994 12.7808 12.6872 13.1262 12.8867 13.3326L13.42 13.8844C13.6501 14.1224 13.7576 14.4532 13.7113 14.781L13.6042 15.5409C13.5641 15.8251 13.8579 16.0386 14.1159 15.9126L14.8055 15.5759C15.1029 15.4307 15.4507 15.4307 15.7482 15.5759L16.4378 15.9126C16.6957 16.0386 16.9896 15.8251 16.9495 15.5409L16.8424 14.781C16.7961 14.4532 16.9036 14.1224 17.1337 13.8844L17.667 13.3326C17.8665 13.1262 17.7543 12.7808 17.4716 12.731L16.7157 12.5981C16.3897 12.5408 16.1083 12.3364 15.9531 12.044L15.5931 11.3662Z" fill="#4200FF"/>
<path fill-rule="evenodd" clip-rule="evenodd" d="M15.277 18.3378C17.7958 18.3378 19.8378 16.2958 19.8378 13.777C19.8378 11.2581 17.7958 9.21616 15.277 9.21616C12.7581 9.21616 10.7162 11.2581 10.7162 13.777C10.7162 16.2958 12.7581 18.3378 15.277 18.3378ZM15.277 19.0539C18.1913 19.0539 20.5539 16.6913 20.5539 13.777C20.5539 10.8626 18.1913 8.5 15.277 8.5C12.3626 8.5 10 10.8626 10 13.777C10 16.6913 12.3626 19.0539 15.277 19.0539Z" fill="#4200FF"/>
<path fill-rule="evenodd" clip-rule="evenodd" d="M12.62 22.146V17.5459H11.9038V23.4997L15.2773 21.2038L18.6508 23.4997V17.5459H17.9346V22.146L15.2773 20.3376L12.62 22.146Z" fill="#4200FF"/>
</svg>
