<svg width="30" height="31" viewBox="0 0 30 31" fill="none" xmlns="http://www.w3.org/2000/svg">
<circle cx="15" cy="15.5" r="15" fill="#A180FF"/>
<mask id="path-2-inside-1_1_2662" fill="white">
<path d="M13.6658 12.4004L13.3833 14.0458C13.3694 14.1266 13.3783 14.2097 13.4092 14.2857C13.44 14.3617 13.4915 14.4275 13.5579 14.4757C13.6242 14.5239 13.7027 14.5526 13.7845 14.5585C13.8663 14.5644 13.9481 14.5472 14.0207 14.509L15.4978 13.7325L16.9749 14.509C17.0378 14.5422 17.1079 14.5596 17.179 14.5598V14.5598C17.2449 14.5596 17.31 14.5445 17.3693 14.5158C17.4286 14.487 17.4807 14.4453 17.5217 14.3937C17.5628 14.3421 17.5917 14.282 17.6063 14.2177C17.621 14.1535 17.621 14.0867 17.6064 14.0224L17.3282 12.4012L18.5237 11.2348C18.5826 11.1777 18.6244 11.1052 18.6441 11.0255C18.6639 10.9458 18.661 10.8622 18.6357 10.7841C18.6103 10.706 18.5636 10.6366 18.5008 10.5837C18.438 10.5309 18.3617 10.4967 18.2804 10.485L16.6283 10.2451L15.8894 8.74545C15.8532 8.6718 15.7971 8.60977 15.7274 8.56638C15.6578 8.523 15.5774 8.5 15.4953 8.5C15.4132 8.5 15.3328 8.523 15.2632 8.56638C15.1935 8.60977 15.1374 8.6718 15.1012 8.74545L14.3623 10.2451L12.7102 10.485C12.6289 10.4967 12.5526 10.5309 12.4898 10.5837C12.427 10.6366 12.3803 10.706 12.3549 10.7841C12.3296 10.8622 12.3267 10.9458 12.3465 11.0255C12.3662 11.1052 12.408 11.1777 12.4669 11.2348L13.6658 12.4004ZM14.7205 11.0824C14.7915 11.0725 14.859 11.0454 14.9171 11.0034C14.9751 10.9614 15.0221 10.9059 15.0537 10.8416L15.5011 9.93598L15.9485 10.8416C15.9803 10.9058 16.0272 10.9613 16.0853 11.0033C16.1434 11.0453 16.2108 11.0724 16.2818 11.0824L17.2815 11.2273L16.5584 11.9321C16.5073 11.9818 16.469 12.0432 16.4469 12.111C16.4249 12.1788 16.4197 12.2509 16.4317 12.3212L16.5984 13.3168L15.7044 12.8469C15.6414 12.8137 15.5712 12.7964 15.4999 12.7964C15.4286 12.7964 15.3584 12.8137 15.2954 12.8469L14.4014 13.3168L14.568 12.3212C14.5801 12.2509 14.5749 12.1788 14.5528 12.111C14.5308 12.0432 14.4925 11.9818 14.4414 11.9321L13.7183 11.2273L14.7205 11.0824Z"/>
</mask>
<path d="M13.6658 12.4004L13.3833 14.0458C13.3694 14.1266 13.3783 14.2097 13.4092 14.2857C13.44 14.3617 13.4915 14.4275 13.5579 14.4757C13.6242 14.5239 13.7027 14.5526 13.7845 14.5585C13.8663 14.5644 13.9481 14.5472 14.0207 14.509L15.4978 13.7325L16.9749 14.509C17.0378 14.5422 17.1079 14.5596 17.179 14.5598V14.5598C17.2449 14.5596 17.31 14.5445 17.3693 14.5158C17.4286 14.487 17.4807 14.4453 17.5217 14.3937C17.5628 14.3421 17.5917 14.282 17.6063 14.2177C17.621 14.1535 17.621 14.0867 17.6064 14.0224L17.3282 12.4012L18.5237 11.2348C18.5826 11.1777 18.6244 11.1052 18.6441 11.0255C18.6639 10.9458 18.661 10.8622 18.6357 10.7841C18.6103 10.706 18.5636 10.6366 18.5008 10.5837C18.438 10.5309 18.3617 10.4967 18.2804 10.485L16.6283 10.2451L15.8894 8.74545C15.8532 8.6718 15.7971 8.60977 15.7274 8.56638C15.6578 8.523 15.5774 8.5 15.4953 8.5C15.4132 8.5 15.3328 8.523 15.2632 8.56638C15.1935 8.60977 15.1374 8.6718 15.1012 8.74545L14.3623 10.2451L12.7102 10.485C12.6289 10.4967 12.5526 10.5309 12.4898 10.5837C12.427 10.6366 12.3803 10.706 12.3549 10.7841C12.3296 10.8622 12.3267 10.9458 12.3465 11.0255C12.3662 11.1052 12.408 11.1777 12.4669 11.2348L13.6658 12.4004ZM14.7205 11.0824C14.7915 11.0725 14.859 11.0454 14.9171 11.0034C14.9751 10.9614 15.0221 10.9059 15.0537 10.8416L15.5011 9.93598L15.9485 10.8416C15.9803 10.9058 16.0272 10.9613 16.0853 11.0033C16.1434 11.0453 16.2108 11.0724 16.2818 11.0824L17.2815 11.2273L16.5584 11.9321C16.5073 11.9818 16.469 12.0432 16.4469 12.111C16.4249 12.1788 16.4197 12.2509 16.4317 12.3212L16.5984 13.3168L15.7044 12.8469C15.6414 12.8137 15.5712 12.7964 15.4999 12.7964C15.4286 12.7964 15.3584 12.8137 15.2954 12.8469L14.4014 13.3168L14.568 12.3212C14.5801 12.2509 14.5749 12.1788 14.5528 12.111C14.5308 12.0432 14.4925 11.9818 14.4414 11.9321L13.7183 11.2273L14.7205 11.0824Z" fill="#A180FF"/>
<path d="M13.6658 12.4004L14.6514 12.5695L14.7405 12.0505L14.3628 11.6834L13.6658 12.4004ZM13.3833 14.0458L14.3687 14.2161L14.3689 14.2149L13.3833 14.0458ZM14.0207 14.509L13.5554 13.6238L13.5544 13.6243L14.0207 14.509ZM15.4978 13.7325L15.9631 12.8474L15.4978 12.6028L15.0325 12.8474L15.4978 13.7325ZM16.9749 14.509L17.4419 13.6247L17.4402 13.6238L16.9749 14.509ZM17.6064 14.0224L16.6208 14.1916L16.6254 14.218L16.6313 14.244L17.6064 14.0224ZM17.3282 12.4012L16.6298 11.6854L16.2537 12.0524L16.3426 12.5703L17.3282 12.4012ZM18.5237 11.2348L17.8276 10.5169L17.8254 10.519L18.5237 11.2348ZM18.2804 10.485L18.1367 11.4746L18.1384 11.4749L18.2804 10.485ZM16.6283 10.2451L15.7313 10.6871L15.9639 11.1591L16.4846 11.2347L16.6283 10.2451ZM15.8894 8.74545L14.9918 9.1864L14.9924 9.18748L15.8894 8.74545ZM15.4953 8.5V7.5V8.5ZM15.1012 8.74545L15.9982 9.18748L15.9988 9.1864L15.1012 8.74545ZM14.3623 10.2451L14.506 11.2347L15.0267 11.1591L15.2593 10.6871L14.3623 10.2451ZM12.7102 10.485L12.8522 11.4749L12.8539 11.4746L12.7102 10.485ZM12.4669 11.2348L13.164 10.5178L13.163 10.5169L12.4669 11.2348ZM14.7205 11.0824L14.5825 10.0919L14.5774 10.0927L14.7205 11.0824ZM15.0537 10.8416L14.1572 10.3987L14.1568 10.3995L15.0537 10.8416ZM15.5011 9.93598L16.3977 9.49306L15.5011 7.67825L14.6046 9.49306L15.5011 9.93598ZM15.9485 10.8416L15.052 11.2845L15.052 11.2845L15.9485 10.8416ZM16.2818 11.0824L16.4253 10.0927L16.4207 10.0921L16.2818 11.0824ZM17.2815 11.2273L17.9795 11.9434L19.4311 10.5286L17.425 10.2377L17.2815 11.2273ZM16.5584 11.9321L17.2555 12.6491L17.2563 12.6483L16.5584 11.9321ZM16.4317 12.3212L17.418 12.1561L17.4173 12.152L16.4317 12.3212ZM16.5984 13.3168L16.1331 14.202L17.9174 15.1398L17.5846 13.1517L16.5984 13.3168ZM15.7044 12.8469L15.2386 13.7318L15.2391 13.7321L15.7044 12.8469ZM15.2954 12.8469L15.7606 13.7321L15.7612 13.7318L15.2954 12.8469ZM14.4014 13.3168L13.4151 13.1517L13.0824 15.1398L14.8667 14.202L14.4014 13.3168ZM14.568 12.3212L13.5825 12.152L13.5818 12.1561L14.568 12.3212ZM14.4414 11.9321L13.7434 12.6483L13.7443 12.6491L14.4414 11.9321ZM13.7183 11.2273L13.5751 10.2376L11.568 10.5279L13.0203 11.9434L13.7183 11.2273ZM12.6802 12.2312L12.3978 13.8766L14.3689 14.2149L14.6514 12.5695L12.6802 12.2312ZM12.398 13.8754C12.3522 14.1403 12.3815 14.4127 12.4826 14.6618L14.3357 13.9096C14.3751 14.0066 14.3866 14.1128 14.3687 14.2161L12.398 13.8754ZM12.4826 14.6618C12.5837 14.9108 12.7525 15.1266 12.9699 15.2846L14.1458 13.6668C14.2305 13.7284 14.2963 13.8125 14.3357 13.9096L12.4826 14.6618ZM12.9699 15.2846C13.1874 15.4427 13.4447 15.5367 13.7128 15.5559L13.8562 13.5611C13.9607 13.5686 14.061 13.6052 14.1458 13.6668L12.9699 15.2846ZM13.7128 15.5559C13.981 15.5752 14.2491 15.519 14.4869 15.3936L13.5544 13.6243C13.6471 13.5755 13.7517 13.5535 13.8562 13.5611L13.7128 15.5559ZM14.486 15.3941L15.9631 14.6177L15.0325 12.8474L13.5554 13.6238L14.486 15.3941ZM15.0325 14.6177L16.5096 15.3941L17.4402 13.6238L15.9631 12.8474L15.0325 14.6177ZM16.5079 15.3932C16.7141 15.5021 16.9437 15.5593 17.1769 15.5598L17.1812 13.5598C17.2721 13.56 17.3616 13.5823 17.4419 13.6247L16.5079 15.3932ZM17.1826 15.5598C17.3983 15.559 17.6112 15.5098 17.8054 15.4157L16.9332 13.6159C17.0088 13.5793 17.0916 13.5601 17.1755 13.5598L17.1826 15.5598ZM17.8054 15.4157C17.9996 15.3216 18.1701 15.185 18.3044 15.0162L16.7391 13.7713C16.7913 13.7056 16.8577 13.6525 16.9332 13.6159L17.8054 15.4157ZM18.3044 15.0162C18.4387 14.8473 18.5333 14.6504 18.5813 14.4401L16.6314 13.9954C16.65 13.9135 16.6869 13.837 16.7391 13.7713L18.3044 15.0162ZM18.5813 14.4401C18.6293 14.2297 18.6294 14.0113 18.5816 13.8008L16.6313 14.244C16.6127 14.1622 16.6127 14.0772 16.6314 13.9954L18.5813 14.4401ZM18.592 13.8533L18.3137 12.232L16.3426 12.5703L16.6208 14.1916L18.592 13.8533ZM18.0265 13.117L19.222 11.9506L17.8254 10.519L16.6298 11.6854L18.0265 13.117ZM19.2198 11.9527C19.413 11.7654 19.5498 11.5277 19.6146 11.2666L17.6737 10.7843C17.6989 10.6826 17.7522 10.59 17.8276 10.5169L19.2198 11.9527ZM19.6146 11.2666C19.6795 11.0056 19.6699 10.7315 19.5869 10.4755L17.6845 11.0927C17.6521 10.9929 17.6484 10.8861 17.6737 10.7843L19.6146 11.2666ZM19.5869 10.4755C19.5038 10.2195 19.3507 9.99203 19.1449 9.81877L17.8568 11.3487C17.7766 11.2812 17.7169 11.1925 17.6845 11.0927L19.5869 10.4755ZM19.1449 9.81877C18.9391 9.6455 18.6888 9.53337 18.4225 9.49515L18.1384 11.4749C18.0345 11.46 17.937 11.4163 17.8568 11.3487L19.1449 9.81877ZM18.4241 9.49539L16.7721 9.25545L16.4846 11.2347L18.1367 11.4746L18.4241 9.49539ZM17.5253 9.80305L16.7864 8.30343L14.9924 9.18748L15.7313 10.6871L17.5253 9.80305ZM16.7869 8.30451C16.6683 8.06307 16.4844 7.85975 16.2561 7.71757L15.1987 9.41519C15.1098 9.35978 15.0381 9.28054 14.9918 9.1864L16.7869 8.30451ZM16.2561 7.71757C16.0278 7.57538 15.7643 7.5 15.4953 7.5V9.5C15.3905 9.5 15.2877 9.47062 15.1987 9.41519L16.2561 7.71757ZM15.4953 7.5C15.2263 7.5 14.9628 7.57538 14.7345 7.71757L15.7919 9.41519C15.7029 9.47062 15.6001 9.5 15.4953 9.5V7.5ZM14.7345 7.71757C14.5061 7.85979 14.3223 8.06314 14.2037 8.30451L15.9988 9.1864C15.9526 9.28047 15.8809 9.35974 15.7919 9.41519L14.7345 7.71757ZM14.2042 8.30343L13.4653 9.80304L15.2593 10.6871L15.9982 9.18748L14.2042 8.30343ZM14.2185 9.25545L12.5665 9.49539L12.8539 11.4746L14.506 11.2347L14.2185 9.25545ZM12.5681 9.49515C12.3018 9.53337 12.0515 9.6455 11.8457 9.81877L13.1338 11.3487C13.0536 11.4163 12.9561 11.46 12.8522 11.4749L12.5681 9.49515ZM11.8457 9.81877C11.6399 9.99208 11.4868 10.2196 11.4037 10.4755L13.3061 11.0927C13.2738 11.1925 13.2141 11.2811 13.1338 11.3487L11.8457 9.81877ZM11.4037 10.4755C11.3207 10.7314 11.3111 11.0055 11.376 11.2666L13.3169 10.7843C13.3422 10.8862 13.3385 10.993 13.3061 11.0927L11.4037 10.4755ZM11.376 11.2666C11.4408 11.5278 11.5776 11.7654 11.7708 11.9527L13.163 10.5169C13.2383 10.5899 13.2916 10.6825 13.3169 10.7843L11.376 11.2666ZM11.7698 11.9518L12.9687 13.1174L14.3628 11.6834L13.164 10.5178L11.7698 11.9518ZM14.8585 12.0728C15.0911 12.0404 15.3123 11.9515 15.5027 11.814L14.3314 10.1928C14.4056 10.1392 14.4918 10.1046 14.5825 10.0919L14.8585 12.0728ZM15.5027 11.814C15.6931 11.6764 15.8469 11.4943 15.9507 11.2836L14.1568 10.3995C14.1972 10.3174 14.2572 10.2465 14.3314 10.1928L15.5027 11.814ZM15.9503 11.2845L16.3977 10.3789L14.6046 9.49306L14.1572 10.3987L15.9503 11.2845ZM14.6046 10.3789L15.052 11.2845L16.8451 10.3987L16.3977 9.49306L14.6046 10.3789ZM15.052 11.2845C15.1558 11.4948 15.3095 11.6765 15.4996 11.8139L16.6709 10.1927C16.7449 10.2462 16.8047 10.3169 16.8451 10.3986L15.052 11.2845ZM15.4996 11.8139C15.6897 11.9512 15.9105 12.0401 16.1428 12.0727L16.4207 10.0921C16.5111 10.1047 16.597 10.1393 16.6709 10.1927L15.4996 11.8139ZM16.1383 12.072L17.138 12.217L17.425 10.2377L16.4253 10.0927L16.1383 12.072ZM16.5835 10.5112L15.8604 11.216L17.2563 12.6483L17.9795 11.9434L16.5835 10.5112ZM15.8612 11.2152C15.6937 11.3781 15.5684 11.5793 15.496 11.8015L17.3978 12.4205C17.3697 12.5071 17.3208 12.5856 17.2555 12.6491L15.8612 11.2152ZM15.496 11.8015C15.4237 12.0238 15.4066 12.2602 15.4462 12.4904L17.4173 12.152C17.4327 12.2417 17.4261 12.3338 17.3978 12.4205L15.496 11.8015ZM15.4455 12.4863L15.6121 13.4818L17.5846 13.1517L17.418 12.1561L15.4455 12.4863ZM17.0636 12.4316L16.1697 11.9617L15.2391 13.7321L16.1331 14.202L17.0636 12.4316ZM16.1703 11.962C15.9636 11.8532 15.7335 11.7964 15.4999 11.7964V13.7964C15.4088 13.7964 15.3191 13.7742 15.2386 13.7318L16.1703 11.962ZM15.4999 11.7964C15.2663 11.7964 15.0362 11.8532 14.8295 11.962L15.7612 13.7318C15.6806 13.7742 15.5909 13.7964 15.4999 13.7964V11.7964ZM14.8301 11.9617L13.9361 12.4316L14.8667 14.202L15.7606 13.7321L14.8301 11.9617ZM15.3877 13.4819L15.5543 12.4863L13.5818 12.1561L13.4151 13.1517L15.3877 13.4819ZM15.5536 12.4904C15.5932 12.2601 15.576 12.0237 15.5037 11.8015L13.6019 12.4205C13.5737 12.3339 13.567 12.2418 13.5825 12.152L15.5536 12.4904ZM15.5037 11.8015C15.4314 11.5793 15.3061 11.3781 15.1386 11.2152L13.7443 12.6491C13.679 12.5856 13.6301 12.5071 13.6019 12.4205L15.5037 11.8015ZM15.1394 11.216L14.4162 10.5112L13.0203 11.9434L13.7434 12.6483L15.1394 11.216ZM13.8614 12.217L14.8637 12.0721L14.5774 10.0927L13.5751 10.2376L13.8614 12.217Z" fill="white" mask="url(#path-2-inside-1_1_2662)"/>
<path d="M18.3833 19.3226L18.5113 19.2564C18.4616 19.3223 18.4187 19.3928 18.3833 19.4666V19.3226Z" fill="#A180FF" stroke="white"/>
</svg>
