<svg width="40" height="40" viewBox="0 0 40 40" fill="none" xmlns="http://www.w3.org/2000/svg">
<path d="M20 40C31.0457 40 40 31.0457 40 20C40 8.9543 31.0457 0 20 0C8.9543 0 0 8.9543 0 20C0 31.0457 8.9543 40 20 40Z" fill="#E0E0E0"/>
<path d="M26.6203 15.7208C26.1409 15.4417 25.5167 15.4417 24.9894 15.7208L21.2477 17.8603L18.705 19.2542L14.9633 21.3953C14.4839 21.6744 13.8602 21.6744 13.3324 21.3953L10.3598 19.7208C9.88048 19.4417 9.5444 18.9304 9.5444 18.3722V15.0699C9.54183 14.7915 9.61673 14.5179 9.76074 14.2797C9.90474 14.0414 10.1122 13.8479 10.3598 13.7208L13.2861 12.0931C13.7654 11.814 14.3891 11.814 14.917 12.0931L17.8432 13.7208C18.3226 13.9999 18.6586 14.5117 18.6586 15.0694V17.2089L21.2014 15.7671V13.6276C21.2041 13.3487 21.129 13.0746 20.9846 12.836C20.8401 12.5974 20.6321 12.4038 20.3838 12.2768L14.9633 9.20892C14.4839 8.93036 13.8602 8.93036 13.3324 9.20892L7.81604 12.2768C7.56835 12.4038 7.36086 12.5972 7.21677 12.8354C7.07267 13.0736 6.99764 13.3471 7.00006 13.6254V19.814C6.99764 20.0923 7.07267 20.3659 7.21677 20.604C7.36086 20.8422 7.56835 21.0356 7.81604 21.1626L13.3324 24.2326C13.8118 24.5117 14.4355 24.5117 14.9633 24.2326L18.705 22.1394L21.2477 20.6976L24.9894 18.6044C25.4688 18.3253 26.0925 18.3253 26.6203 18.6044L29.5465 20.2326C30.0259 20.5117 30.362 21.023 30.362 21.5812V24.8835C30.3642 25.1617 30.2892 25.435 30.1452 25.673C30.0012 25.911 29.794 26.1044 29.5465 26.2316L26.6203 27.9056C26.1409 28.1847 25.5167 28.1847 24.9894 27.9056L22.0632 26.2779C21.5838 25.9988 21.2477 25.4869 21.2477 24.9293V22.7908L18.705 24.2326V26.3722C18.7022 26.6509 18.7771 26.9248 18.9212 27.1634C19.0653 27.4019 19.273 27.5957 19.521 27.7229L25.0373 30.7908C25.5167 31.0694 26.1404 31.0694 26.6682 30.7908L32.1846 27.7229C32.664 27.4438 33.0001 26.9325 33.0001 26.3743V20.1858C33.0026 19.9074 32.9277 19.6339 32.7837 19.3958C32.6396 19.1576 32.4322 18.9642 32.1846 18.8372L26.6203 15.7208Z" fill="#333333"/>
</svg>
