<svg width="20" height="20" viewBox="0 0 20 20" fill="none" xmlns="http://www.w3.org/2000/svg">
<path d="M10 20C15.5228 20 20 15.5228 20 10C20 4.47715 15.5228 0 10 0C4.47715 0 0 4.47715 0 10C0 15.5228 4.47715 20 10 20Z" fill="#8247E5"/>
<path d="M13.3101 7.86039C13.0705 7.72084 12.7584 7.72084 12.4947 7.86039L10.6239 8.93016L9.35249 9.6271L7.48165 10.6977C7.24197 10.8372 6.93012 10.8372 6.66621 10.6977L5.17992 9.86039C4.94024 9.72084 4.7722 9.46518 4.7722 9.18608V7.53495C4.77091 7.39576 4.80837 7.25896 4.88037 7.13983C4.95237 7.02071 5.05609 6.92395 5.17992 6.86039L6.64304 6.04654C6.88272 5.90699 7.19457 5.90699 7.45848 6.04654L8.9216 6.86039C9.16128 6.99993 9.32932 7.25586 9.32932 7.53469V8.60446L10.6007 7.88356V6.81378C10.602 6.67435 10.5645 6.5373 10.4923 6.418C10.4201 6.29871 10.3161 6.2019 10.1919 6.13842L7.48165 4.60446C7.24197 4.46518 6.93012 4.46518 6.66621 4.60446L3.90802 6.13842C3.78417 6.20192 3.68043 6.29862 3.60838 6.4177C3.53633 6.53678 3.49882 6.67354 3.50003 6.81272V9.90699C3.49882 10.0462 3.53633 10.1829 3.60838 10.302C3.68043 10.4211 3.78417 10.5178 3.90802 10.5813L6.66621 12.1163C6.90589 12.2559 7.21774 12.2559 7.48165 12.1163L9.35249 11.0697L10.6239 10.3488L12.4947 9.3022C12.7344 9.16265 13.0462 9.16265 13.3101 9.3022L14.7733 10.1163C15.0129 10.2559 15.181 10.5115 15.181 10.7906V12.4417C15.1821 12.5808 15.1446 12.7175 15.0726 12.8365C15.0006 12.9555 14.897 13.0522 14.7733 13.1158L13.3101 13.9528C13.0705 14.0923 12.7584 14.0923 12.4947 13.9528L11.0316 13.1389C10.7919 12.9994 10.6239 12.7435 10.6239 12.4646V11.3954L9.35249 12.1163V13.1861C9.35111 13.3254 9.38855 13.4624 9.4606 13.5817C9.53266 13.701 9.63649 13.7978 9.76048 13.8615L12.5187 15.3954C12.7584 15.5347 13.0702 15.5347 13.3341 15.3954L16.0923 13.8615C16.332 13.7219 16.5 13.4662 16.5 13.1871V10.0929C16.5013 9.95372 16.4638 9.81696 16.3918 9.69788C16.3198 9.5788 16.2161 9.4821 16.0923 9.41858L13.3101 7.86039Z" fill="white"/>
</svg>
