<svg width="50" height="50" viewBox="0 0 50 50" fill="none" xmlns="http://www.w3.org/2000/svg">
<path d="M25 50C38.8071 50 50 38.8071 50 25C50 11.1929 38.8071 0 25 0C11.1929 0 0 11.1929 0 25C0 38.8071 11.1929 50 25 50Z" fill="#8247E5"/>
<path d="M33.2754 19.651C32.6762 19.3021 31.8959 19.3021 31.2368 19.651L26.5597 22.3254L23.3812 24.0677L18.7041 26.7442C18.1049 27.093 17.3253 27.093 16.6655 26.7442L12.9498 24.651C12.3506 24.3021 11.9305 23.6629 11.9305 22.9652V18.8374C11.9273 18.4894 12.0209 18.1474 12.2009 17.8496C12.3809 17.5518 12.6402 17.3099 12.9498 17.151L16.6076 15.1163C17.2068 14.7675 17.9864 14.7675 18.6462 15.1163L22.304 17.151C22.9032 17.4998 23.3233 18.1396 23.3233 18.8367V21.5112L26.5017 19.7089V17.0345C26.5051 16.6859 26.4112 16.3432 26.2307 16.045C26.0502 15.7468 25.7902 15.5047 25.4798 15.346L18.7041 11.5112C18.1049 11.1629 17.3253 11.1629 16.6655 11.5112L9.77004 15.346C9.46044 15.5048 9.20108 15.7466 9.02096 16.0442C8.84084 16.3419 8.74705 16.6839 8.75007 17.0318V24.7675C8.74705 25.1154 8.84084 25.4573 9.02096 25.755C9.20108 26.0527 9.46044 26.2945 9.77004 26.4532L16.6655 30.2908C17.2647 30.6396 18.0443 30.6396 18.7041 30.2908L23.3812 27.6743L26.5597 25.872L31.2368 23.2555C31.836 22.9066 32.6156 22.9066 33.2754 23.2555L36.9332 25.2908C37.5324 25.6396 37.9525 26.2788 37.9525 26.9765V31.1044C37.9553 31.4521 37.8615 31.7937 37.6815 32.0913C37.5015 32.3888 37.2424 32.6305 36.9332 32.7894L33.2754 34.882C32.6762 35.2309 31.8959 35.2309 31.2368 34.882L27.579 32.8474C26.9798 32.4985 26.5597 31.8587 26.5597 31.1616V28.4885L23.3812 30.2908V32.9652C23.3778 33.3136 23.4714 33.656 23.6515 33.9542C23.8317 34.2524 24.0912 34.4946 24.4012 34.6536L31.2967 38.4885C31.8959 38.8367 32.6755 38.8367 33.3353 38.4885L40.2308 34.6536C40.83 34.3048 41.2501 33.6656 41.2501 32.9679V25.2322C41.2532 24.8843 41.1596 24.5424 40.9796 24.2447C40.7996 23.947 40.5403 23.7052 40.2308 23.5464L33.2754 19.651Z" fill="white"/>
</svg>
