<svg width="40" height="40" viewBox="0 0 40 40" fill="none" xmlns="http://www.w3.org/2000/svg">
<circle cx="20" cy="20" r="20" fill="#E0E0E0"/>
<path fill-rule="evenodd" clip-rule="evenodd" d="M8.23437 12.5907L11.5938 9.62496L12.2557 10.3746L10.3253 12.0787L19.0035 12.0787L19.0035 13.0787L10.3903 13.0787L12.2438 14.6148L11.6057 15.3848L8.23437 12.5907Z" fill="#333333"/>
<path fill-rule="evenodd" clip-rule="evenodd" d="M31.7656 26.4093L28.4062 29.375L27.7443 28.6254L29.6747 26.9213L20.9965 26.9213L20.9965 25.9213L29.6097 25.9213L27.7562 24.3852L28.3943 23.6152L31.7656 26.4093Z" fill="#333333"/>
<path fill-rule="evenodd" clip-rule="evenodd" d="M26 12C27.1046 12 28 11.1046 28 10C28 8.89543 27.1046 8 26 8C24.8954 8 24 8.89543 24 10C24 11.1046 24.8954 12 26 12ZM26 13C27.6569 13 29 11.6569 29 10C29 8.34315 27.6569 7 26 7C24.3431 7 23 8.34315 23 10C23 11.6569 24.3431 13 26 13Z" fill="#333333"/>
<path fill-rule="evenodd" clip-rule="evenodd" d="M14 26C15.1046 26 16 25.1046 16 24C16 22.8954 15.1046 22 14 22C12.8954 22 12 22.8954 12 24C12 25.1046 12.8954 26 14 26ZM14 27C15.6569 27 17 25.6569 17 24C17 22.3431 15.6569 21 14 21C12.3431 21 11 22.3431 11 24C11 25.6569 12.3431 27 14 27Z" fill="#333333"/>
<path fill-rule="evenodd" clip-rule="evenodd" d="M30.9 16C30.4367 13.7178 28.419 12 26 12C23.581 12 21.5633 13.7178 21.1 16C21.0344 16.3231 21 16.6575 21 17H31C31 16.6575 30.9656 16.3231 30.9 16ZM29.874 16C29.4299 14.2748 27.8638 13 26 13C24.1362 13 22.5701 14.2748 22.126 16H29.874Z" fill="#333333"/>
<path fill-rule="evenodd" clip-rule="evenodd" d="M18.9 30C18.4367 27.7178 16.419 26 14 26C11.581 26 9.56329 27.7178 9.10002 30C9.03443 30.3231 9 30.6575 9 31H19C19 30.6575 18.9656 30.3231 18.9 30ZM17.874 30C17.4299 28.2748 15.8638 27 14 27C12.1362 27 10.5701 28.2748 10.126 30H17.874Z" fill="#333333"/>
</svg>
