<svg width="50" height="50" viewBox="0 0 50 50" fill="none" xmlns="http://www.w3.org/2000/svg">
<path d="M50 25C50 38.8071 38.8071 50 25 50C11.1929 50 0 38.8071 0 25C0 11.1929 11.1929 0 25 0C38.8071 0 50 11.1929 50 25Z" fill="#F2F2F2"/>
<path fill-rule="evenodd" clip-rule="evenodd" d="M19.3115 12.8692C19.7773 12.4455 20.4855 12.4345 20.9643 12.8434L30.991 21.407C31.4864 21.8301 31.5737 22.5628 31.1917 23.0905L21.165 36.9407C20.9301 37.2652 20.5539 37.4575 20.1533 37.4577C19.7527 37.458 19.3763 37.2663 19.1409 36.9421L9.34004 23.4414C8.96569 22.9257 9.03916 22.211 9.51059 21.7823L19.3115 12.8692ZM20.1784 15.46L12.0208 22.8786L20.1511 34.078L28.4902 22.5589L20.1784 15.46Z" fill="#333333"/>
<path fill-rule="evenodd" clip-rule="evenodd" d="M29.1971 12.888C29.6687 12.4396 30.4055 12.4281 30.8909 12.8615L40.4817 21.4251C40.9523 21.8453 41.036 22.5504 40.6768 23.0691L31.086 36.9194C30.8527 37.2563 30.469 37.4575 30.0592 37.4577C29.6493 37.458 29.2654 37.2573 29.0316 36.9207L19.6569 23.42C19.3051 22.9134 19.3754 22.2261 19.8223 21.8011L29.1971 12.888ZM30.085 15.4935L22.3217 22.8744L30.0569 34.0141L37.9926 22.5541L30.085 15.4935Z" fill="#333333"/>
</svg>
