<svg width="40" height="40" viewBox="0 0 40 40" fill="none" xmlns="http://www.w3.org/2000/svg">
<path d="M40 20C40 31.0457 31.0457 40 20 40C8.9543 40 0 31.0457 0 20C0 8.9543 8.9543 0 20 0C31.0457 0 40 8.9543 40 20Z" fill="#E0E0E0"/>
<path fill-rule="evenodd" clip-rule="evenodd" d="M21.5168 30.9453C20.9383 31.8854 19.5719 31.8854 18.9934 30.9453L15.4634 25.209L17.1456 24.1738L20.2551 29.2267L23.3646 24.1738L25.0469 25.209L21.5168 30.9453Z" fill="#333333"/>
<path fill-rule="evenodd" clip-rule="evenodd" d="M13.8293 24.1969C16.8293 24.1969 19.2614 21.7649 19.2614 18.7648C19.2614 15.7648 16.8293 13.3327 13.8293 13.3327C10.8292 13.3327 8.39718 15.7648 8.39718 18.7648C8.39718 21.7649 10.8292 24.1969 13.8293 24.1969ZM13.8293 26.1722C17.9203 26.1722 21.2367 22.8558 21.2367 18.7648C21.2367 14.6738 17.9203 11.3574 13.8293 11.3574C9.73828 11.3574 6.42188 14.6738 6.42188 18.7648C6.42188 22.8558 9.73828 26.1722 13.8293 26.1722Z" fill="#333333"/>
<path fill-rule="evenodd" clip-rule="evenodd" d="M26.673 24.1969C29.6731 24.1969 32.1051 21.7649 32.1051 18.7648C32.1051 15.7648 29.6731 13.3327 26.673 13.3327C23.673 13.3327 21.2409 15.7648 21.2409 18.7648C21.2409 21.7649 23.673 24.1969 26.673 24.1969ZM26.673 26.1722C30.764 26.1722 34.0804 22.8558 34.0804 18.7648C34.0804 14.6738 30.764 11.3574 26.673 11.3574C22.582 11.3574 19.2656 14.6738 19.2656 18.7648C19.2656 22.8558 22.582 26.1722 26.673 26.1722Z" fill="#333333"/>
<path fill-rule="evenodd" clip-rule="evenodd" d="M13.3412 20.7404C14.4322 20.7404 15.3166 19.856 15.3166 18.7651C15.3166 17.6741 14.4322 16.7898 13.3412 16.7898C12.2503 16.7898 11.3659 17.6741 11.3659 18.7651C11.3659 19.856 12.2503 20.7404 13.3412 20.7404ZM13.3412 22.7157C15.5231 22.7157 17.2919 20.9469 17.2919 18.7651C17.2919 16.5832 15.5231 14.8145 13.3412 14.8145C11.1594 14.8145 9.39062 16.5832 9.39062 18.7651C9.39062 20.9469 11.1594 22.7157 13.3412 22.7157Z" fill="#333333"/>
<path fill-rule="evenodd" clip-rule="evenodd" d="M26.6694 20.7404C27.7603 20.7404 28.6447 19.856 28.6447 18.7651C28.6447 17.6741 27.7603 16.7898 26.6694 16.7898C25.5784 16.7898 24.6941 17.6741 24.6941 18.7651C24.6941 19.856 25.5784 20.7404 26.6694 20.7404ZM26.6694 22.7157C28.8512 22.7157 30.62 20.9469 30.62 18.7651C30.62 16.5832 28.8512 14.8145 26.6694 14.8145C24.4875 14.8145 22.7188 16.5832 22.7188 18.7651C22.7188 20.9469 24.4875 22.7157 26.6694 22.7157Z" fill="#333333"/>
</svg>
