<svg width="40" height="40" viewBox="0 0 40 40" fill="none" xmlns="http://www.w3.org/2000/svg">
<line x1="12" y1="17.5" x2="29" y2="17.5" stroke="white"/>
<circle cx="20" cy="20" r="20" fill="#07EED6"/>
<rect x="10.5" y="9.5" width="20" height="10" stroke="white"/>
<rect x="15.5" y="13.5" width="11" height="17" fill="#07EED6" stroke="white"/>
<path d="M10.5789 22L10.5789 29M10.5789 29L13 25.3484M10.5789 29L8 25.3484" stroke="white"/>
<path d="M21.1183 26.5998C20.7025 26.5818 20.3082 26.5324 19.9355 26.4517C19.5699 26.3709 19.2616 26.2587 19.0108 26.1151V24.7956C19.2688 24.9482 19.5914 25.0873 19.9785 25.213C20.3728 25.3297 20.7527 25.3925 21.1183 25.4015V22.8837C20.7455 22.7401 20.4229 22.5875 20.1505 22.4259C19.8853 22.2644 19.6667 22.0894 19.4946 21.9009C19.3297 21.7034 19.2043 21.479 19.1183 21.2277C19.0394 20.9763 19 20.6891 19 20.366C19 19.9262 19.086 19.5492 19.2581 19.235C19.4373 18.9119 19.6846 18.6561 20 18.4676C20.3226 18.2791 20.6953 18.1669 21.1183 18.131V17H21.8172V18.1175C22.2043 18.1265 22.5591 18.1803 22.8817 18.2791C23.2043 18.3688 23.509 18.49 23.7957 18.6426L23.4409 19.8005C23.1971 19.6748 22.9319 19.5716 22.6452 19.4908C22.3656 19.4011 22.0896 19.3427 21.8172 19.3158V21.7931C22.2616 21.9727 22.6452 22.1612 22.9677 22.3586C23.2975 22.5561 23.552 22.8029 23.7312 23.0991C23.9104 23.3864 24 23.7678 24 24.2436C24 24.8809 23.81 25.4015 23.4301 25.8054C23.0573 26.2093 22.5197 26.4561 21.8172 26.5459V28H21.1183V26.5998ZM21.8172 25.3476C22.19 25.2938 22.4588 25.1816 22.6237 25.011C22.7957 24.8315 22.8817 24.6026 22.8817 24.3244C22.8817 24.1359 22.8459 23.9743 22.7742 23.8397C22.7097 23.705 22.5986 23.5883 22.4409 23.4896C22.2903 23.3909 22.0824 23.2921 21.8172 23.1934V25.3476ZM21.1183 19.3427C20.8961 19.3607 20.7097 19.4145 20.5591 19.5043C20.4158 19.5851 20.3047 19.6928 20.2258 19.8274C20.1541 19.9621 20.1183 20.1191 20.1183 20.2987C20.1183 20.4961 20.1505 20.6712 20.2151 20.8237C20.2796 20.9674 20.3835 21.093 20.5269 21.2007C20.6703 21.2995 20.8674 21.3937 21.1183 21.4835V19.3427Z" fill="white"/>
</svg>
