<svg width="20" height="20" viewBox="0 0 20 20" fill="none" xmlns="http://www.w3.org/2000/svg">
<path d="M20 10C20 15.5228 15.5228 20 10 20C4.47715 20 0 15.5228 0 10C0 4.47715 4.47715 0 10 0C15.5228 0 20 4.47715 20 10Z" fill="#A180FF"/>
<path fill-rule="evenodd" clip-rule="evenodd" d="M10.7584 15.4727C10.4692 15.9427 9.78595 15.9427 9.4967 15.4727L7.73168 12.6045L8.57282 12.0869L10.1276 14.6133L11.6823 12.0869L12.5234 12.6045L10.7584 15.4727Z" fill="white"/>
<path fill-rule="evenodd" clip-rule="evenodd" d="M6.91464 12.0985C8.41467 12.0985 9.63069 10.8824 9.63069 9.38241C9.63069 7.88238 8.41467 6.66637 6.91464 6.66637C5.41461 6.66637 4.19859 7.88238 4.19859 9.38241C4.19859 10.8824 5.41461 12.0985 6.91464 12.0985ZM6.91464 13.0861C8.96014 13.0861 10.6183 11.4279 10.6183 9.38241C10.6183 7.33692 8.96014 5.67871 6.91464 5.67871C4.86914 5.67871 3.21094 7.33692 3.21094 9.38241C3.21094 11.4279 4.86914 13.0861 6.91464 13.0861Z" fill="white"/>
<path fill-rule="evenodd" clip-rule="evenodd" d="M13.3365 12.0985C14.8365 12.0985 16.0526 10.8824 16.0526 9.38241C16.0526 7.88238 14.8365 6.66637 13.3365 6.66637C11.8365 6.66637 10.6205 7.88238 10.6205 9.38241C10.6205 10.8824 11.8365 12.0985 13.3365 12.0985ZM13.3365 13.0861C15.382 13.0861 17.0402 11.4279 17.0402 9.38241C17.0402 7.33692 15.382 5.67871 13.3365 5.67871C11.291 5.67871 9.63281 7.33692 9.63281 9.38241C9.63281 11.4279 11.291 13.0861 13.3365 13.0861Z" fill="white"/>
<path fill-rule="evenodd" clip-rule="evenodd" d="M6.67062 10.3702C7.21609 10.3702 7.65828 9.928 7.65828 9.38254C7.65828 8.83707 7.21609 8.39488 6.67062 8.39488C6.12515 8.39488 5.68297 8.83707 5.68297 9.38254C5.68297 9.928 6.12515 10.3702 6.67062 10.3702ZM6.67062 11.3578C7.76155 11.3578 8.64593 10.4735 8.64593 9.38254C8.64593 8.2916 7.76155 7.40723 6.67062 7.40723C5.57969 7.40723 4.69531 8.2916 4.69531 9.38254C4.69531 10.4735 5.57969 11.3578 6.67062 11.3578Z" fill="white"/>
<path fill-rule="evenodd" clip-rule="evenodd" d="M13.3347 10.3702C13.8802 10.3702 14.3223 9.928 14.3223 9.38254C14.3223 8.83707 13.8802 8.39488 13.3347 8.39488C12.7892 8.39488 12.347 8.83707 12.347 9.38254C12.347 9.928 12.7892 10.3702 13.3347 10.3702ZM13.3347 11.3578C14.4256 11.3578 15.31 10.4735 15.31 9.38254C15.31 8.2916 14.4256 7.40723 13.3347 7.40723C12.2438 7.40723 11.3594 8.2916 11.3594 9.38254C11.3594 10.4735 12.2438 11.3578 13.3347 11.3578Z" fill="white"/>
</svg>
