<svg width="40" height="40" viewBox="0 0 40 40" fill="none" xmlns="http://www.w3.org/2000/svg">
<path d="M40 20C40 31.0457 31.0457 40 20 40C8.9543 40 0 31.0457 0 20C0 8.9543 8.9543 0 20 0C31.0457 0 40 8.9543 40 20Z" fill="#E0E0E0"/>
<path fill-rule="evenodd" clip-rule="evenodd" d="M15.4414 10.2944C15.814 9.95546 16.3806 9.94664 16.7636 10.2738L24.785 17.1246C25.1813 17.4631 25.2512 18.0492 24.9455 18.4714L16.9242 29.5516C16.7363 29.8112 16.4353 29.965 16.1148 29.9652C15.7944 29.9654 15.4932 29.812 15.3049 29.5527L7.46422 18.7521C7.16474 18.3396 7.22351 17.7678 7.60066 17.4248L15.4414 10.2944ZM16.1349 12.367L9.60883 18.3019L16.113 27.2615L22.7844 18.0461L16.1349 12.367Z" fill="#333333"/>
<path fill-rule="evenodd" clip-rule="evenodd" d="M23.3577 10.3095C23.735 9.95073 24.3244 9.94151 24.7127 10.2883L32.3853 17.1391C32.7619 17.4753 32.8288 18.0393 32.5414 18.4543L24.8688 29.5345C24.6822 29.8041 24.3752 29.965 24.0474 29.9652C23.7195 29.9654 23.4123 29.8049 23.2253 29.5356L15.7255 18.735C15.4441 18.3298 15.5003 17.7799 15.8579 17.4399L23.3577 10.3095ZM24.068 12.3938L17.8573 18.2986L24.0456 27.2103L30.394 18.0423L24.068 12.3938Z" fill="#333333"/>
</svg>
