<svg width="50" height="50" viewBox="0 0 50 50" fill="none" xmlns="http://www.w3.org/2000/svg">
<path d="M50 25C50 38.8071 38.8071 50 25 50C11.1929 50 0 38.8071 0 25C0 11.1929 11.1929 0 25 0C38.8071 0 50 11.1929 50 25Z" fill="#FFB21A"/>
<path fill-rule="evenodd" clip-rule="evenodd" d="M19.3037 12.8682C19.7695 12.4446 20.4777 12.4335 20.9565 12.8425L30.9832 21.406C31.4786 21.8291 31.5659 22.5618 31.1839 23.0895L21.1572 36.9398C20.9223 37.2643 20.5461 37.4565 20.1455 37.4568C19.7449 37.457 19.3684 37.2653 19.1331 36.9411L9.33222 23.4404C8.95787 22.9247 9.03134 22.21 9.50277 21.7813L19.3037 12.8682ZM20.1706 15.459L12.013 22.8776L20.1433 34.0771L28.4824 22.5579L20.1706 15.459Z" fill="white"/>
<path fill-rule="evenodd" clip-rule="evenodd" d="M29.2049 12.8871C29.6765 12.4387 30.4133 12.4271 30.8987 12.8606L40.4895 21.4241C40.9601 21.8443 41.0438 22.5494 40.6846 23.0681L31.0939 36.9184C30.8605 37.2553 30.4768 37.4565 30.067 37.4568C29.6572 37.457 29.2732 37.2564 29.0394 36.9197L19.6647 23.419C19.3129 22.9125 19.3832 22.2251 19.8301 21.8001L29.2049 12.8871ZM30.0928 15.4925L22.3295 22.8735L30.0648 34.0131L38.0004 22.5531L30.0928 15.4925Z" fill="white"/>
</svg>
