<svg width="50" height="50" viewBox="0 0 50 50" fill="none" xmlns="http://www.w3.org/2000/svg">
<path d="M49.9981 25C49.9981 38.8071 38.8057 50 24.9991 50C11.1925 50 0 38.8071 0 25C0 11.1929 11.1925 0 24.9991 0C38.8057 0 49.9981 11.1929 49.9981 25Z" fill="#F2F2F2"/>
<path fill-rule="evenodd" clip-rule="evenodd" d="M26.8845 38.6778C26.1614 39.8528 24.4534 39.8528 23.7303 38.6778L19.3179 31.5074L21.4207 30.2133L25.3074 36.5294L29.1941 30.2133L31.2969 31.5074L26.8845 38.6778Z" fill="#333333"/>
<path fill-rule="evenodd" clip-rule="evenodd" d="M17.2745 30.2466C21.0245 30.2466 24.0644 27.2066 24.0644 23.4565C24.0644 19.7064 21.0245 16.6664 17.2745 16.6664C13.5246 16.6664 10.4847 19.7064 10.4847 23.4565C10.4847 27.2066 13.5246 30.2466 17.2745 30.2466ZM17.2745 32.7158C22.3881 32.7158 26.5335 28.5703 26.5335 23.4565C26.5335 18.3428 22.3881 14.1973 17.2745 14.1973C12.161 14.1973 8.01562 18.3428 8.01562 23.4565C8.01562 28.5703 12.161 32.7158 17.2745 32.7158Z" fill="#333333"/>
<path fill-rule="evenodd" clip-rule="evenodd" d="M33.3527 30.2466C37.1026 30.2466 40.1425 27.2066 40.1425 23.4565C40.1425 19.7064 37.1026 16.6664 33.3527 16.6664C29.6027 16.6664 26.5628 19.7064 26.5628 23.4565C26.5628 27.2066 29.6027 30.2466 33.3527 30.2466ZM33.3527 32.7158C38.4662 32.7158 42.6116 28.5703 42.6116 23.4565C42.6116 18.3428 38.4662 14.1973 33.3527 14.1973C28.2391 14.1973 24.0938 18.3428 24.0938 23.4565C24.0938 28.5703 28.2391 32.7158 33.3527 32.7158Z" fill="#333333"/>
<path fill-rule="evenodd" clip-rule="evenodd" d="M16.6881 25.9289C18.0517 25.9289 19.1571 24.8234 19.1571 23.4598C19.1571 22.0961 18.0517 20.9906 16.6881 20.9906C15.3245 20.9906 14.219 22.0961 14.219 23.4598C14.219 24.8234 15.3245 25.9289 16.6881 25.9289ZM16.6881 28.398C19.4153 28.398 21.6262 26.1871 21.6262 23.4598C21.6262 20.7324 19.4153 18.5215 16.6881 18.5215C13.9609 18.5215 11.75 20.7324 11.75 23.4598C11.75 26.1871 13.9609 28.398 16.6881 28.398Z" fill="#333333"/>
<path fill-rule="evenodd" clip-rule="evenodd" d="M33.3365 25.9289C34.7001 25.9289 35.8056 24.8234 35.8056 23.4598C35.8056 22.0961 34.7001 20.9906 33.3365 20.9906C31.9729 20.9906 30.8675 22.0961 30.8675 23.4598C30.8675 24.8234 31.9729 25.9289 33.3365 25.9289ZM33.3365 28.398C36.0638 28.398 38.2746 26.1871 38.2746 23.4598C38.2746 20.7324 36.0638 18.5215 33.3365 18.5215C30.6093 18.5215 28.3984 20.7324 28.3984 23.4598C28.3984 26.1871 30.6093 28.398 33.3365 28.398Z" fill="#333333"/>
</svg>
