<svg width="50" height="50" viewBox="0 0 50 50" fill="none" xmlns="http://www.w3.org/2000/svg">
<path d="M50 25C50 38.8071 38.8071 50 25 50C11.1929 50 0 38.8071 0 25C0 11.1929 11.1929 0 25 0C38.8071 0 50 11.1929 50 25Z" fill="#A180FF"/>
<path fill-rule="evenodd" clip-rule="evenodd" d="M26.8882 38.6812C26.1651 39.8563 24.4571 39.8563 23.7339 38.6812L19.3214 31.5108L21.4242 30.2167L25.3111 36.5328L29.1979 30.2167L31.3008 31.5108L26.8882 38.6812Z" fill="white"/>
<path fill-rule="evenodd" clip-rule="evenodd" d="M17.2788 30.2466C21.0289 30.2466 24.0689 27.2066 24.0689 23.4565C24.0689 19.7064 21.0289 16.6664 17.2788 16.6664C13.5287 16.6664 10.4887 19.7064 10.4887 23.4565C10.4887 27.2066 13.5287 30.2466 17.2788 30.2466ZM17.2788 32.7158C22.3925 32.7158 26.538 28.5703 26.538 23.4565C26.538 18.3428 22.3925 14.1973 17.2788 14.1973C12.165 14.1973 8.01953 18.3428 8.01953 23.4565C8.01953 28.5703 12.165 32.7158 17.2788 32.7158Z" fill="white"/>
<path fill-rule="evenodd" clip-rule="evenodd" d="M33.3335 30.2466C37.0836 30.2466 40.1236 27.2066 40.1236 23.4565C40.1236 19.7064 37.0836 16.6664 33.3335 16.6664C29.5834 16.6664 26.5434 19.7064 26.5434 23.4565C26.5434 27.2066 29.5834 30.2466 33.3335 30.2466ZM33.3335 32.7158C38.4472 32.7158 42.5927 28.5703 42.5927 23.4565C42.5927 18.3428 38.4472 14.1973 33.3335 14.1973C28.2197 14.1973 24.0742 18.3428 24.0742 23.4565C24.0742 28.5703 28.2197 32.7158 33.3335 32.7158Z" fill="white"/>
<path fill-rule="evenodd" clip-rule="evenodd" d="M16.6687 25.926C18.0324 25.926 19.1379 24.8205 19.1379 23.4568C19.1379 22.0932 18.0324 20.9877 16.6687 20.9877C15.3051 20.9877 14.1996 22.0932 14.1996 23.4568C14.1996 24.8205 15.3051 25.926 16.6687 25.926ZM16.6687 28.3951C19.3961 28.3951 21.607 26.1842 21.607 23.4568C21.607 20.7295 19.3961 18.5186 16.6687 18.5186C13.9414 18.5186 11.7305 20.7295 11.7305 23.4568C11.7305 26.1842 13.9414 28.3951 16.6687 28.3951Z" fill="white"/>
<path fill-rule="evenodd" clip-rule="evenodd" d="M33.3367 25.926C34.7004 25.926 35.8058 24.8205 35.8058 23.4568C35.8058 22.0932 34.7004 20.9877 33.3367 20.9877C31.973 20.9877 30.8676 22.0932 30.8676 23.4568C30.8676 24.8205 31.973 25.926 33.3367 25.926ZM33.3367 28.3951C36.064 28.3951 38.275 26.1842 38.275 23.4568C38.275 20.7295 36.064 18.5186 33.3367 18.5186C30.6094 18.5186 28.3984 20.7295 28.3984 23.4568C28.3984 26.1842 30.6094 28.3951 33.3367 28.3951Z" fill="white"/>
</svg>
